<?xml version="1.0" encoding="UTF-8" standalone="no"?>
<svg id="Layer_1" data-name="Layer 1" class="color" xmlns="http://www.w3.org/2000/svg" xmlns:xlink="http://www.w3.org/1999/xlink" viewBox="0 0 119 32">
<defs>
<style>
.cls-1 { fill: url(#linear-gradient-2); }
.cls-2 { fill: url(#linear-gradient); }
</style>
<linearGradient
       id="linear-gradient"
       x1="352.89"
       y1="-231.54"
       x2="371.41"
       y2="-231.54"
       gradientTransform="translate(-292.31 -226) scale(1 -1)"
       gradientUnits="userSpaceOnUse"><stop
         offset="0"
         stop-color="#000"
         stop-opacity="0"
         id="stop1" /><stop
         offset=".8"
         stop-color="#000"
         stop-opacity=".5"
         id="stop2" /></linearGradient><linearGradient
       id="linear-gradient-2"
       x1="349.08"
       y1="-239.54"
       x2="359.5"
       y2="-239.54"
       xlink:href="#linear-gradient" /></defs><g
     id="g3"><path
       d="M111.59,12.75h-20.08v-1.38l-2.26-.13v-.67c0-.19-.18-.32-.36-.27l-1.14.3-.37,1.01h-9.56v-1.61c0-.48-.36-.88-.84-.93l-.85-.09v1.98l-1.72-.37c-.32-.07-.64.11-.76.42l-.52,1.41h-2.83v-1.64c0-.48-.36-.88-.84-.94l-.79-.09v7.62l.79-.09c.48-.05.84-.46.84-.94v-1.64h2.83l.52,1.41c.11.31.44.49.76.42l1.72-.37v1.98l.85-.09c.48-.05.84-.45.84-.94v-1.61h9.56l.37,1.01,1.14.3c.18.05.36-.09.36-.27v-.67l2.26-.13v-1.38h23.41c.09,0,.11-.13.02-.16-1.37-.43-2.52-.9-3.35-1.44Z"
       id="path2" /><path
       d="M81.59,7.62v-1.23h2.12l.39,1.06c.08.23.33.37.57.31l1.28-.27v1.48l.64-.07c.36-.04.63-.34.63-.7v-1.2h7.15l.27.75.85.22c.13.04.27-.06.27-.2v-.5l1.69-.1v-1.03h17.5c.07,0,.08-.1.01-.12-1.03-.32-1.88-.67-2.51-1.07h-15.01v-1.03l-1.69-.1v-.5c0-.14-.13-.24-.27-.2l-.85.22-.27.75h-7.15v-1.2c0-.36-.27-.66-.63-.7l-.64-.07v1.48l-1.28-.27c-.24-.05-.48.08-.57.31l-.39,1.06h-2.12v-1.23c0-.36-.27-.66-.62-.7l-.59-.07v5.69l.59-.07c.36-.04.62-.34.62-.7Z"
       id="path3" /></g><rect
     class="cls-2"
     x="60.58"
     y="4.57"
     width="18.53"
     height="1.95"
     id="rect3" /><rect
     class="cls-1  cls-2"
     x="56.77"
     y="12.57"
     width="10.42"
     height="1.95"
     id="rect4"
     style="" /><g
     id="g13"
     style="display:inline"><path
       id="path4"
       d="m 40.549883,10.519531 2.34e-4,1.650469 -22.319648,-7.8e-5 c -1.24,-0.02 -1.640625,-0.109922 -1.640625,-0.919922 h -2.550782 c -0.339999,0 -0.609374,0.269375 -0.609374,0.609375 v 5.541016 l 0.640624,0.789062 c 0.160001,0.2 0.169297,0.490703 0.0293,0.720703 L 6.9804688,29.759766 C 6.7404687,30.119766 6.87,30.600781 7.25,30.800781 l 2.1796875,1.119141 c 0.31,0.16 0.6903905,0.07102 0.9003905,-0.208984 l 7.470703,-10.060547 h 0.988281 l -0.828124,2.669921 c -0.160001,0.5 -0.150235,1.029297 0.0098,1.529297 L 19.5,29.400391 21.130859,28.779297 20.339844,25.480469 c -0.06,-0.33 -0.03945,-0.68 0.06055,-1 l 1.269531,-4.09961 c 0.21,-0.66 0.819766,-1.111328 1.509766,-1.111328 h 1.330078 l 0.466796,1.015625 h 7.275391 l 0.08984,0.326172 0.791015,-2.277344 1.039063,4.216797 1.496094,-6.052734 1.261719,4.986328 1.539062,-3.578125 0.296875,2.378906 h 7.914063 v -4.865234 h 2.541015 v -3.339844 h -2.541015 v -0.779297 c 0,-0.43 -0.349297,-0.78125 -0.779297,-0.78125 z m -4.876055,8.039063 -1.501953,6.078125 -1.119141,-4.544922 -0.767578,2.210937 -0.414062,-1.517578 h -6.666016 l 1.554688,3.384766 c 0.4,0.87 1.260703,1.419922 2.220703,1.419922 h 14.789062 c 1.61,0 2.910156,-1.300156 2.910157,-2.910156 v -1.894532 h -8.355469 l -0.123047,-0.986328 -1.392578,3.238281 z" /><path
       d="M 40.007331,5.556 C 40.007331,5.556 37.99,3.3936402 37.91,2.8126472 37.86,2.4708866 37.44,2.2111486 36.93,2.2111486 H 34.91 V 6.243038 H 22.78 V 2.2111486 l -4.388967,0 c -0.5,0 -0.93,0.259738 -0.98,0.6014986 -0.06,0.4032775 -0.1,0.7997198 -0.14,1.2029972 v 5.65272 c 0.04,0.4032776 0.09,0.7997196 0.14,1.2029966 0.05,0.341761 0.47,0.601499 0.98,0.601499 l 18.528967,0 c 0.5,0 0.93,-0.259738 0.98,-0.601499 C 37.94,10.625294 39.997331,9.133 39.997331,9.133 Z"
       id="path5"
       style="stroke-width:0.826753" /><path
       d="m 5.17,3.22 c -0.18,0 -0.35,0.11 -0.43,0.27 -1,2.19 -1,4.37 0,6.55 0.07,0.17 0.24,0.27 0.43,0.27 h 1.22 c 0,0 0.05,0 0.08,-0.01 V 3.4 c 0,-0.06 0,-0.11 0,-0.17 -0.03,0 -0.05,-0.01 -0.08,-0.01 z"
       id="path6" /><path
       d="M 12.19,8.22 V 8.01 h 3.4 V 5.52 h -3.4 v -0.2 c 0,-0.66 -0.43,-1.2 -1.02,-1.38 v 5.65 c 0.59,-0.18 1.02,-0.73 1.02,-1.38 z"
       id="path7" /><path
       d="M 54.763637,11.12 H 50.37 v 5.34 h 4.393637 c 1.02,0 1.02,-5.33 0,-5.33 z"
       id="path8" /><path
       d="m 9.37,17.4 h 2.78 V 13.06 H 9.89 V 2.37 H 8.79 C 8.22,2.37 7.76,2.83 7.76,3.4 v 14 h 1.62 z"
       id="path9" /></g><path
     id="rect15"
     style="stroke-width:0.399445;stroke-linecap:square;stroke-miterlimit:12.7;paint-order:stroke fill markers"
     d="M 23.780001,2.711 H 33.91 V 5.243 H 23.780001 Z" /><path
     id="rect16"
     style="stroke-width:0.66537;stroke-linecap:square;stroke-miterlimit:12.7;paint-order:stroke fill markers"
     d="m 50.77,4.72 h 2.93411 v 5.9 H 50.77 Z" /><path
     id="rect17"
     style="stroke-width:0.5;stroke-linecap:square;stroke-miterlimit:12.7;paint-order:stroke fill markers"
     d="m 41,4.699 h 4.29465 V 9.99 H 41 Z" /><path
     d="m 46.18,8.6495 h 3.69 v -2.61 l -3.69,1.532e-4 z"
     id="path5-8" /><path
     id="path17"
     style="stroke-width:0.43312;stroke-linecap:square;stroke-miterlimit:12.7;paint-order:stroke fill markers"
     d="m 50.77,16.96 h 2.93411 v 2.5 H 50.77 Z" /></svg>
