<?xml version="1.0" encoding="UTF-8" standalone="no"?>
<svg id="Layer_1" data-name="Layer 1" class="color" xmlns="http://www.w3.org/2000/svg" xmlns:xlink="http://www.w3.org/1999/xlink" viewBox="0 0 77 32">
  <defs>
    <style>
      .cls-1 { opacity: .5; }
      .cls-2 { fill:#ad7a18; }
    </style>
  </defs>
  <g
     id="g16">
    <path
       d="M 52.8,15.67 47.09,15.11 V 8.77 L 52.8,8.21 c 1.26,0 1.26,7.46 0,7.46 z"
       id="path1" />
    <rect
       x="44.939999"
       y="8.2600002"
       width="1.49"
       height="7.3600001"
       rx="0.75"
       ry="0.75"
       id="rect1" />
    <path
       id="path2"
       d="M 10.523438,1.6328125 C 10.152188,1.6290625 9.7804687,1.7547656 9.4804688,2.0097656 L 5.7207031,4.9492188 c -0.41,0.3499999 -0.6207812,0.8799218 -0.5507812,1.4199218 l 0.1992187,1.53125 H 4.5292969 c -0.15,0 -0.2785938,0.1097656 -0.3085938,0.2597656 L 4.0292969,9.1796875 c -0.04,0.19 0.1110156,0.359375 0.2910156,0.359375 h 3.1894531 v 1.3007815 h 1.640625 V 10.189453 L 9.8007812,9.5390625 h 0.9999998 c 0.27,0 0.519688,-0.118125 0.679688,-0.328125 l 3.808593,-4.7011719 c 0.300001,-0.37 0.830469,-0.4494531 1.230469,-0.1894531 l 5.03125,3.75 c 0.34,0.22 0.738672,0.3398437 1.138672,0.3398437 l 0.720703,-0.029297 V 6.75 l -0.380859,0.019531 -0.01953,0.00977 c -0.31,0 -0.609141,-0.089766 -0.869141,-0.2597657 L 16.679688,2.4804688 c -0.68,-0.4500001 -1.599141,-0.3099219 -2.119141,0.3300781 L 13.740234,3.9394531 11.560547,2.0292969 c -0.295,-0.26 -0.66586,-0.3927344 -1.037109,-0.3964844 z m -0.0293,1.9453125 c 0.215,0.00125 0.430468,0.077656 0.605468,0.2226562 l 1.59961,1.3984376 -2.279297,2.7011718 H 7.0097656 L 6.8496094,6.6796875 c -0.04,-0.31 0.080312,-0.6203125 0.3203125,-0.8203125 L 9.890625,3.8007812 c 0.175,-0.1499999 0.388516,-0.2239062 0.603516,-0.2226562 z M 7.4902344,13.789062 v 5.390626 l 1.109375,1.109374 h 0.089844 c 0.05,-0.899999 0.1302344,-1.729687 0.2402344,-2.429687 0.04,-0.29 0.1011719,-0.668594 0.2011719,-1.058594 v -3.011719 z" />
    <path
       d="M 37.89,10.17 V 9.44 H 33.63 V 8.57 h -2.04 c -0.14,0 -0.26,0.12 -0.26,0.26 v 6.23 c 0,0.15 0.12,0.26 0.26,0.26 h 2.04 v -0.87 h 4.26 v -0.86 h -4.26 v -1.2 h 4.26 v -1.22 h -4.26 v -1.01 h 4.26 z"
       id="path3" />
    <path
       d="M 40.6,10.17 V 9.44 H 39.91 V 8.57 H 38.8 c -0.14,0 -0.26,0.12 -0.26,0.26 v 6.24 c 0,0.14 0.12,0.26 0.26,0.26 h 1.11 V 14.46 H 40.6 V 13.6 h -0.69 v -1.2 h 0.69 v -1.22 h -0.69 v -1.01 z"
       id="path4" />
    <path
       d="M 44.29,10.17 V 9.44 H 42.63 V 8.57 h -1.11 c -0.14,0 -0.26,0.12 -0.26,0.26 v 6.24 c 0,0.14 0.12,0.26 0.26,0.26 h 1.11 v -0.87 h 1.66 V 13.6 h -1.66 v -1.2 h 1.66 v -1.22 h -1.66 v -1.01 z"
       id="path5" />
    <path
       id="polygon5"
       d="M 12.490234,11.5 H 6.6308594 v 1.630859 h 5.8593746 z m 6.615235,-1.6503906 v 1.0175786 0.5 1.48038 c 0,0.419656 0.127864,0.782772 0.232422,1.033291 h 1.742187 V 9.8496094 Z" />
    <path
       d="m 25.33,12.24 v 2.71 c -0.27,0 -0.53,0.01 -0.8,0.02 V 14.95 L 21.91,13.88 V 9.83 l 1.5,-0.43 v 1.56 c 0,0.7 0.57,1.28 1.28,1.28 h 0.65 z"
       id="path6" />
    <path
       d="m 30.14,11.19 v 4.04 c -0.48,-0.06 -0.95,-0.12 -1.43,-0.16 v -2.83 h 0.13 c 0.51,0 0.97,-0.3 1.17,-0.77 l 0.12,-0.28 z"
       id="path7" />
    <path
       d="m 32.46,24.81 c -0.14,2 -0.49,3.61 -1.04,3.77 -3.48,0.86 -6.97,0.91 -10.45,0.15 v -3.94 c 3.83,0.24 7.66,0.25 11.49,0.02 z"
       id="path8" />
    <path
       id="path9"
       d="m 25.330078,15.929688 c -1.393149,0.01908 -2.776529,0.138898 -4.160156,0.349609 1.398501,0.704493 3.620948,1.979404 6.080078,1.974609 l 2,-0.0039 h 0.5 1.5 0.5 0.470703 c -0.186056,-1.034329 -0.453157,-1.740399 -0.800781,-1.820312 -0.9,-0.170001 -1.808985,-0.289141 -2.708984,-0.369141 v 1.798828 l -3.38086,-0.119141 z m -4.359375,7.451171 v 0.728516 c 0.918383,0.05262 1.836606,0.09459 2.755859,0.123047 -1.040835,-0.255651 -2.081766,-0.511279 -2.755859,-0.851563 z" />
    <path
       id="path10"
       d="m 10.029297,17.320312 c -0.6200001,2.900001 -0.5400001,9.460626 0.25,11.390626 0.01,-0.360001 0.04008,-0.731329 0.08008,-1.111329 l 0.08008,-0.740234 h 8.691406 v 2.400391 H 19.75 c 0.3,0 0.550781,-0.229532 0.550781,-0.519532 v -5.628906 c -1.216398,-0.384408 -2.231314,-1.097141 -3.249999,-1.85021 v 1.168568 L 10.410157,22.32031 V 18.28906 H 10 Z" />
    <path
       d="m 28.84,11.43 h -4.17 c -0.25,0 -0.46,-0.21 -0.46,-0.46 V 6.72 c 0,-0.25 0.21,-0.46 0.46,-0.46 h 4.1 c 0.21,0 0.4,0.15 0.45,0.36 l 0.55,2.42 c 0.09,0.39 0.05,0.81 -0.11,1.18 l -0.4,0.93 c -0.07,0.17 -0.24,0.28 -0.42,0.28 z"
       id="path11" />
    <polygon
       points="26.14,12.22 27.89,12.22 27.89,17.01 26.14,16.95 "
       id="polygon11" />
    <path
       id="path12"
       d="m 10.919922,14.699219 -0.07031,2.78125 h 0.390625 v 4.048828 l 5,0.08008 v -1.03125 c -0.63998,-0.514921 -1.159391,-1.102749 -1.640625,-1.757813 v 0.548829 h -0.71875 v -1.777344 c -0.595506,-0.8611 -0.794668,-1.893264 -1.042968,-2.892578 z m 0.779297,2.791015 h 0.710937 v 1.878907 h -0.710937 z m 1.101562,0 h 0.708985 v 1.878907 h -0.708985 z" />
    <path
       d="M 29.09,0.39 28.52,5.6 h -1.43 l 0.28,-5.35 c 0,-0.15 0.14,-0.26 0.28,-0.25 l 1.2,0.1 c 0.15,0.01 0.26,0.14 0.24,0.29 z"
       id="path13" />
    <path
       d="m 17.84,31.88 -6.23,-0.2 c -0.21,0 -0.4,-0.17 -0.42,-0.38 -0.15,-1.16 -0.15,-2.37 -0.02,-3.62 h 7.14 v 3.74 c 0,0.25 -0.21,0.46 -0.46,0.45 z"
       id="path14" />
    <g
       id="g15">
      <path
         id="path15"
         d="m 35.398438,24.75 -1.488282,5.099609 c -0.15,0.52 -0.639687,0.860079 -1.179687,0.830079 L 19.119141,29.900391 v 1.310547 L 32.869141,32 c 1.03,0.06 1.950234,-0.600078 2.240234,-1.580078 L 36.763672,24.75 H 35.75 Z" />
    </g>
    <path
       id="path16"
       d="m 37.75,20.789062 v 1.921876 h 0.410156 c 0.2,0 0.2,-1.910157 0,-1.910157 l -0.0098,-0.01172 z" />
  </g>
  <g
     class="cls-1"
     id="g18">
    <path
       d="m 55.81,9.32 c 0.43,-0.29 7.71,-2.77 7.71,-2.77 l -0.8,2.18 10.28,2.09 -11.01,3.73 2.14,1.3 -3.85,1.33 -5.32,-2.41 2.68,-1.79 -1.59,-0.85 2.55,-1.02 -2.78,-1.79 z"
       id="path17" />
    <polygon
       points="57.26,19.87 55.81,15.89 60.92,18.72 "
       id="polygon17" />
    <polygon
       points="59.39,7.05 55.56,8.57 59.7,2.8 "
       id="polygon18" />
  </g>
  <path
     d="m 13.355469,9.6171875 v 1.0000005 h 5 V 9.6171875 Z m 0,2.0000005 v 1 h 5 v -1 z m 4.998047,1.435546 -4.845704,1.234375 0.246094,0.970703 4.845703,-1.234374 z m 0.466796,1.59375 -4.314453,2.529297 0.50586,0.863281 4.314453,-2.529296 z m 0.779297,1.197266 -3.425781,3.642578 0.728516,0.685547 3.425781,-3.642578 z m 1.177735,1.074219 -2.613282,4.263672 0.853516,0.521484 2.611328,-4.261719 z m 1.564453,0.816406 -1.873047,4.634766 0.925781,0.375 1.875,-4.634766 z m 1.841797,0.650391 -1.369141,4.808593 0.962891,0.273438 1.367187,-4.808594 z m 1.941406,0.460937 -0.726562,4.947266 0.988281,0.144531 0.726562,-4.945312 z M 28,19 v 5 h 1 v -5 z m 2,0 v 5 h 1 v -5 z m 2,0 v 5 h 1 v -5 z m 2,0 v 5 h 1 v -5 z m 2,0 v 5 h 1 v -5 z"
     id="path31"
     class="cls-2" />
</svg>
