<?xml version="1.0" encoding="UTF-8"?>
<svg id="Layer_1" data-name="Layer 1" class="color" xmlns="http://www.w3.org/2000/svg" viewBox="0 0 118 32">
  <defs>
    <style>
      .cls-1 {
        opacity: .5;
      }
    </style>
  </defs>
  <g>
    <path d="M47.63,13.5c.11-2.16.11-4.32,0-6.48h-16.3c-.95,0-.95,6.48,0,6.48h16.3Z"/>
    <path d="M29.35,10.26c0,1.08.08,1.96.23,2.65h-2.34c-.12,0-.21-.14-.29-.36h-2.24c-1.31,0-1.31-4.57,0-4.57h2.24c.08-.22.18-.36.29-.36h2.34c-.16.69-.23,1.57-.23,2.65Z"/>
    <path d="M50.06,20.64l-19.06-.11c-1.53-.01-3.02.45-4.28,1.32l-2.71,1.88c-.58.41-1.34.49-1.97.16-.7-.35-1.47-.55-2.26-.56l-14.96-.22c-.57-.01-.96.56-.76,1.09l1.11,2.9c.47,1.25.76,2.57.83,3.91l.02.23c.03.52.54.88,1.04.72l11.93-4.33c.12-.05.25.06.22.19l-.21,1.02c-.07.33.13.65.46.73l1.95.45c.21.04.43-.02.57-.17l3.15-3.25c.41-.4.85-.75,1.32-1.06.35-.24.78-.33,1.21-.26.27.05.49.25.56.52l.19.7c.24.94,1.08,1.64,2.1,1.64s1.79-.65,2.06-1.54l.37-1.26c.11-.38.37-.69.71-.87.26-.14.55-.2.83-.2h.07l13.14.71c.8.04,1.56-.35,2-1.03l1.17-1.84c.41-.63-.05-1.47-.8-1.47ZM30.5,27.3c-.74,0-1.34-.59-1.34-1.33s.6-1.33,1.34-1.33,1.33.6,1.33,1.33-.6,1.33-1.33,1.33Z"/>
    <path d="M89.94,20.74h-37.86c-.03-.07-.06-.13-.09-.2-.39-.7-1.12-1.15-1.93-1.16l-19.06-.11c-1.33,0-2.64.28-3.84.87-.29-.57-.19-1.98.3-1.98h1.26c.11-.22.27-.35.46-.35h60.74c.85,0,.85,2.93,0,2.93Z"/>
    <path d="M32.79,16.23v.75h-1.78c0-.39.08-.75.22-.75h1.56Z"/>
    <rect x="37.76" y="16.23" width="1.72" height=".75"/>
    <polygon points="54.62 15.4 55.81 15.4 55.81 16.97 47.56 16.97 47 16.23 48.25 16.23 54.62 15.4"/>
    <path d="M62.87,16.97h-6.12v-1.92c0-.13.11-.25.25-.25h3.11c.12,0,.22.27.28.66h1.98c.38,0,.55.8.5,1.51Z"/>
    <polygon points="37.4 14.53 36.92 15.3 36.92 16.97 33.64 16.97 33.64 15.3 33.15 14.53 37.4 14.53"/>
    <path d="M46.51,16.97h-6.2v-.88c0-.18.14-.32.31-.32h.44v-1.24h3.84v1.24h.44c.18,0,.35.08.45.23l.73.97Z"/>
    <path d="M53.21,0l-1.09.45c-.38.16,1.57,4.99,2.41,6.25h-5.51c.14,2.37.14,4.73,0,7.1h5.64c1.1,0,1.22-5.66.35-6.86l.92-.38c.72-.3-2.01-6.86-2.73-6.56Z"/>
    <path d="M39.8,5.57c-.14-.28-.32-.64-.7-1.08-.81-.93-1.83-1.5-2.87-1.64-.86-.1-2.61,0-3.09,1.17-.31.78.11,1.61.52,2.17h1.41c-.07-.06-.13-.11-.21-.19-.48-.48-.91-1.19-.74-1.58.15-.38.89-.55,1.55-.55.15,0,.3,0,.44.02.78.1,1.56.55,2.19,1.28.3.35.43.61.56.86.02.05.05.1.07.16h1.29c-.2-.18-.29-.36-.42-.62Z"/>
  </g>
  <polygon class="cls-1" points="100.17 21.35 103.82 24.64 92.09 21.4 93.9 20.44 92.97 19.04 95.06 18.11 92.22 17.2 102.36 12.82 99.37 17.33 114 19.27 100.17 21.35"/>
</svg>