<?xml version="1.0" encoding="UTF-8" standalone="no"?>
<!-- Created using Krita: https://krita.org -->

<svg
   width="181.2pt"
   height="112.2pt"
   viewBox="0 0 181.2 112.2"
   version="1.1"
   id="svg1"
   sodipodi:docname="viewfinder.svg"
   inkscape:version="1.4.2 (f4327f4, 2025-05-13)"
   xmlns:inkscape="http://www.inkscape.org/namespaces/inkscape"
   xmlns:sodipodi="http://sodipodi.sourceforge.net/DTD/sodipodi-0.dtd"
   xmlns="http://www.w3.org/2000/svg"
   xmlns:svg="http://www.w3.org/2000/svg">
  <style
     id="style1">.cls-1 {  }
</style>
  <sodipodi:namedview
     id="namedview1"
     pagecolor="#ffffff"
     bordercolor="#000000"
     borderopacity="0.25"
     inkscape:showpageshadow="2"
     inkscape:pageopacity="0.0"
     inkscape:pagecheckerboard="0"
     inkscape:deskcolor="#d1d1d1"
     inkscape:document-units="pt"
     inkscape:zoom="4.2208982"
     inkscape:cx="127.93485"
     inkscape:cy="86.82986"
     inkscape:window-width="1920"
     inkscape:window-height="1137"
     inkscape:window-x="-8"
     inkscape:window-y="-8"
     inkscape:window-maximized="1"
     inkscape:current-layer="svg1" />
  <defs
     id="defs1" />
  <path
     id="shape0"
     transform="translate(32.6999978605901, 68.5499949262618)"
     fill-rule="evenodd"
     stroke-width="0.3"
     stroke-linecap="square"
     stroke-linejoin="bevel"
     d="M0.15 7.5L0 27.75L6.3 27C10 19.1 14.3 14.4 19.2 12.9C24.1 11.4 24.75 11.2 21.15 12.3L29.7 12.3L30 13.8L44.4 14.4L48.9 14.7L49.2 12L54.9 12.3C60.7 13.7 64.35 13.85 65.85 12.75C67.35 11.65 70 10.65 73.8 9.75L92.55 9.9L92.55 4.35L49.35 4.35L48.3 3.45L22.2 3.45L22.2 0C15.9 8.5 8.55 11 0.15 7.5Z"
     sodipodi:nodetypes="ccczccccccczcccccccc"
     class="cls-1" />
  <path
     id="shape1"
     transform="translate(77.5499949262617, 83.0999939743224)"
     fill-rule="evenodd"
     stroke-width="0.3"
     stroke-linecap="square"
     stroke-linejoin="bevel"
     d="M0 0L0 3.6L3.75 3.75L3.75 0"
     sodipodi:nodetypes="cccc"
     class="cls-1" />
  <path
     id="shape2"
     transform="translate(31.4999979391005, 86.9999937191635)"
     fill-rule="evenodd"
     stroke-width="0.3"
     stroke-linecap="square"
     stroke-linejoin="bevel"
     d="M46.65 0C41.55 28 26.35 32.4 1.05 13.2L0 15.15C27.3 35.05 43.6 30.05 48.9 0.15"
     sodipodi:nodetypes="cccc"
     class="cls-1" />
  <path
     id="shape3"
     transform="translate(2.84999981353766, 76.3499944159438)"
     fill-rule="evenodd"
     stroke-width="0.3"
     stroke-linecap="square"
     stroke-linejoin="bevel"
     d="M27.15 0L27.6 20.85L30.15 22.8L28.35 26.1L26.4 24.3L26.1 25.95L4.5 26.55L0.6 28.2L0 1.65Z"
     sodipodi:nodetypes="cccccccccc"
     class="cls-1" />
  <path
     id="shape4"
     transform="translate(91.7999939939501, 60.5999954463935)"
     fill-rule="evenodd"
     stroke-width="0.3"
     stroke-linecap="square"
     stroke-linejoin="bevel"
     d="M0 0L4.95 12L7.5 12.45L3 0"
     sodipodi:nodetypes="cccc"
     class="cls-1" />
  <path
     id="shape5"
     transform="translate(101.24999337568, 60.4499954562073)"
     fill-rule="evenodd"
     stroke-width="0.3"
     stroke-linecap="square"
     stroke-linejoin="bevel"
     d="M0 0L4.2 12.3L6.75 12.3L2.4 0"
     sodipodi:nodetypes="cccc"
     class="cls-1" />
  <path
     id="shape6"
     transform="translate(120.112492141594, 60.7499954365797)"
     fill-rule="evenodd"
     stroke-width="0.3"
     stroke-linecap="square"
     stroke-linejoin="bevel"
     d="M0 0L3.1875 12L5.2875 12L2.325 1.42109e-14"
     sodipodi:nodetypes="cccc"
     class="cls-1" />
  <path
     id="shape7"
     transform="translate(47.4838202842287, 42.7499964622446)"
     fill-rule="evenodd"
     stroke-width="0.3"
     stroke-linecap="square"
     stroke-linejoin="bevel"
     d="M3.21618 7.65C0.516176 7.45 -0.483823 4.95 0.216176 0.15L38.4662 0L38.1662 15.15L3.21618 15.15Z"
     sodipodi:nodetypes="cccccc"
     class="cls-1" />
  <path
     id="shape8"
     transform="translate(87.7499942589229, 44.2499963641065)"
     fill-rule="evenodd"
     stroke-width="0.3"
     stroke-linecap="square"
     stroke-linejoin="bevel"
     d="M0.3 0L0 9.75L2.25 9.9L2.85 9L8.1 10.05C9.8 6.95 9.9 3.7 8.4 0.3L3 0.9L2.55 2.13163e-14Z"
     sodipodi:nodetypes="ccccccccc"
     class="cls-1" />
  <path
     id="shape9"
     transform="translate(124.499991854545, 60.5999954463935)"
     fill-rule="evenodd"
     stroke-width="0.3"
     stroke-linecap="square"
     stroke-linejoin="bevel"
     d="M6.73636 0L11.4 1.95L11.4 11.85L6.56364 12.15L6.56364 16.95L0 17.55L0 12.15"
     sodipodi:nodetypes="ccccccc"
     class="cls-1" />
  <path
     id="shape10"
     transform="translate(135.599991128318, 64.3499952010483)"
     fill-rule="evenodd"
     stroke-width="0.3"
     stroke-linecap="square"
     stroke-linejoin="bevel"
     d="M0.15 0.3L48 0L48.15 6.75L0 6.6"
     sodipodi:nodetypes="cccc"
     class="cls-1" />
  <path
     id="shape11"
     transform="translate(75.5999950538413, 4.4999989647654)"
     fill-rule="evenodd"
     stroke-width="0.3"
     stroke-linecap="square"
     stroke-linejoin="bevel"
     d="M5.55 38.55L0 0.3L1.05 0L7.35 38.4L10.2 12L11.4 12.6L9 38.25"
     sodipodi:nodetypes="ccccccc"
     class="cls-1" />
  <path
     id="shape12"
     transform="translate(110.37186777804, 60.4499954562073)"
     fill-rule="evenodd"
     stroke-width="0.3"
     stroke-linecap="square"
     stroke-linejoin="bevel"
     d="M4.52812 12.6L0 0.3L1.97812 0L6.47812 12.6"
     sodipodi:nodetypes="cccc"
     class="cls-1" />
  <path
     id="shape13"
     transform="translate(54.8437464101504, 59.0999996036102)"
     fill-rule="evenodd"
     stroke-width="0.3"
     stroke-linecap="square"
     stroke-linejoin="bevel"
     d="M26.3062 13.65L26.9062 0.143478L0.05625 0L0 13.5511"
     sodipodi:nodetypes="cccc"
     class="cls-1" />
  <path
     id="shape14"
     transform="translate(125.249991805471, 60.2999954660211)"
     fill-rule="evenodd"
     stroke-width="0.3"
     stroke-linecap="square"
     stroke-linejoin="bevel"
     d="M6.6 0.45L6.45 12.45L0 12.45L0.3 0Z"
     sodipodi:nodetypes="ccccc"
     class="cls-1" />
  <path
     id="shape15"
     fill-rule="evenodd"
     stroke-width="0.33342"
     stroke-linecap="square"
     stroke-linejoin="bevel"
     d="M 88.349995,73.42163 87.993286,59.25 l -7.58006,0.08641 -0.445886,12.961922 0.980949,1.209727 z"
     sodipodi:nodetypes="cccccc"
     class="cls-1" />
  <path
     id="shape16"
     transform="translate(85.7249943914113, 59.1749955396263)"
     fill-rule="evenodd"
     stroke-width="0.3"
     stroke-linecap="square"
     stroke-linejoin="bevel"
     d="M0.075 0.075L39.9 0L39.9 1.5L0 1.5C0 1.5 0.025 1.025 0.075 0.075Z"
     sodipodi:nodetypes="ccccc"
     class="cls-1" />
  <path
     id="shape20"
     transform="matrix(0.993187704127604 0.116525466614565 -0.116525466614565 0.993187704127604 75.2938717399212 2.52031163710673)"
     fill-rule="evenodd"
     stroke-width="0.9"
     stroke-linecap="square"
     stroke-linejoin="bevel"
     d="M0 0.939011L0.565966 3.33436L2.34472 2.91412L1.57662 0.35068C0.8759 -0.265667 0.35036 -0.0695562 0 0.939011Z"
     sodipodi:nodetypes="ccccc"
     class="cls-1" />
  <path
     id="shape01"
     transform="matrix(0.944500774816947 0.328509187649591 -0.328509187649591 0.944500774816947 86.1877504333752 13.9708772574813)"
     fill-rule="evenodd"
     stroke-width="0.9"
     stroke-linecap="square"
     stroke-linejoin="bevel"
     d="M0 0.939011L0.565966 3.33436L2.34472 2.91412L1.57662 0.35068C0.8759 -0.265667 0.35036 -0.0695561 0 0.939011Z"
     sodipodi:nodetypes="ccccc"
     class="cls-1" />
</svg>
